HIERARCHY
ROOT Joint1
{
	OFFSET 0.000000 0.000000 0.000000
	CHANNELS 6 Xposition Yposition Zposition Xrotation Yrotation Zrotation
	JOINT Joint2
	{
		OFFSET -0.000000 0.000000 1.456275
		CHANNELS 6 Xposition Yposition Zposition Xrotation Yrotation Zrotation
		JOINT Joint3
		{
			OFFSET -0.000000 0.000002 1.471446
			CHANNELS 6 Xposition Yposition Zposition Xrotation Yrotation Zrotation
			JOINT Joint4
			{
				OFFSET 0.625745 0.000000 0.917755
				CHANNELS 6 Xposition Yposition Zposition Xrotation Yrotation Zrotation
				JOINT Joint5
				{
					OFFSET -0.629534 0.000001 0.940221
					CHANNELS 6 Xposition Yposition Zposition Xrotation Yrotation Zrotation
					JOINT Joint6
					{
						OFFSET -0.000001 0.113772 1.960660
						CHANNELS 6 Xposition Yposition Zposition Xrotation Yrotation Zrotation
						JOINT Joint7
						{
							OFFSET -0.669733 -0.113771 0.388340
							CHANNELS 6 Xposition Yposition Zposition Xrotation Yrotation Zrotation
							End Site
							{
								OFFSET 0.005509 0.005509 0.438980
							}
						}
					}
				}
			}
		}
	}
}
MOTION
Frames: 17
Frame Time: 0.041667
0.000000 0.000000 0.000000 -0.000000 1.019410 -0.016821 -0.000000 0.000000 1.456275 0.000000 -44.982499 0.000000 -0.000000 0.000002 1.471445 0.000000 -1.133459 -0.001579 0.625745 0.000000 0.917755 0.000004 135.005355 -0.000001 -0.629534 0.000001 0.940221 -0.000000 1.709737 -0.029274 -0.000002 0.113772 1.960660 -88.315473 89.983098 -0.006606 -0.669733 -0.113771 0.388340 -0.704971 3.566198 134.952858 
0.000000 0.000000 0.000000 -0.000000 1.019410 -0.039600 -0.000000 0.000000 1.456275 0.000000 -44.982458 -0.000000 -0.000000 0.000002 1.471446 0.000000 -1.133461 0.096941 0.625745 0.000000 0.917755 0.000004 134.937176 -0.000001 -0.629533 0.000001 0.940221 -0.000000 1.709736 -0.057994 -0.000000 0.113772 1.960660 -88.290290 90.013724 0.009747 -0.669733 -0.113771 0.388340 -0.704344 3.566197 134.917587 
0.000000 0.000000 0.000000 -0.000000 1.019410 -0.077496 -0.000000 -0.000000 1.456275 0.000000 -44.982379 0.000000 -0.000000 0.000002 1.471446 0.000000 -1.133456 0.260836 0.625745 0.000000 0.917755 0.000004 134.823754 -0.000001 -0.629533 0.000001 0.940221 -0.000000 1.709737 -0.105771 -0.000001 0.113772 1.960660 -88.301198 90.064664 0.001917 -0.669733 -0.113771 0.388340 -0.703302 3.566195 134.858916 
0.000000 0.000000 0.000000 -0.000000 1.019410 -0.130450 -0.000000 0.000000 1.456275 0.000000 -44.982277 -0.000000 -0.000000 0.000002 1.471446 0.000000 -1.133461 0.489858 0.625744 0.000000 0.917755 0.000004 134.665239 -0.000001 -0.629534 0.000001 0.940221 -0.000000 1.709736 -0.172534 -0.000000 0.113772 1.960660 -88.302468 90.135855 0.000855 -0.669733 -0.113771 0.388341 -0.701846 3.566190 134.776954 
0.000000 0.000000 0.000000 -0.000000 1.019410 -0.198405 -0.000000 -0.000000 1.456275 0.000000 -44.982137 0.000000 -0.000000 0.000002 1.471445 0.000000 -1.133462 0.783756 0.625745 0.000000 0.917755 0.000004 134.461836 -0.000001 -0.629534 0.000001 0.940221 -0.000000 1.709736 -0.258209 -0.000001 0.113772 1.960660 -88.303035 90.227209 0.000534 -0.669733 -0.113771 0.388340 -0.699978 3.566182 134.671755 
0.000000 0.000000 0.000000 -0.000000 1.019410 -0.281303 -0.000000 -0.000000 1.456275 0.000000 -44.981966 0.000000 -0.000000 0.000002 1.471446 0.000000 -1.133461 1.142282 0.625745 0.000000 0.917755 0.000004 134.213709 -0.000001 -0.629534 0.000001 0.940221 0.000000 1.709736 -0.362723 -0.000001 0.113772 1.960661 -88.303329 90.338650 0.000366 -0.669733 -0.113771 0.388340 -0.697698 3.566165 134.543430 
0.000000 0.000000 0.000000 -0.000000 1.019410 -0.379086 -0.000000 0.000000 1.456275 0.000000 -44.981771 -0.000000 -0.000000 0.000002 1.471446 -0.000000 -1.133458 1.565187 0.625744 0.000000 0.917755 0.000003 133.921022 -0.000001 -0.629533 0.000001 0.940221 0.000000 1.709736 -0.486005 -0.000000 0.113772 1.960660 -88.303479 90.470104 0.000258 -0.669733 -0.113771 0.388341 -0.695010 3.566141 134.392073 
0.000000 0.000000 0.000000 -0.000000 1.019410 -0.491697 -0.000000 0.000000 1.456275 0.000000 -44.981546 0.000000 -0.000000 0.000002 1.471446 -0.000000 -1.133460 2.052221 0.625745 0.000000 0.917755 0.000004 133.583938 -0.000001 -0.629533 0.000001 0.940221 0.000000 1.709737 -0.627982 -0.000001 0.113772 1.960660 -88.303582 90.621495 0.000198 -0.669733 -0.113771 0.388341 -0.691914 3.566103 134.217739 
0.000000 0.000000 0.000000 -0.000000 1.019410 -0.619079 -0.000000 -0.000000 1.456275 0.000000 -44.981283 0.000000 -0.000000 0.000002 1.471445 0.000000 -1.133460 2.603135 0.625745 0.000000 0.917755 0.000004 133.202663 -0.000001 -0.629534 0.000001 0.940221 0.000000 1.709737 -0.788580 -0.000000 0.113772 1.960660 -88.303643 90.792735 0.000155 -0.669733 -0.113771 0.388340 -0.688412 3.566050 134.020538 
0.000000 0.000000 0.000000 -0.000000 1.019410 -0.761174 -0.000000 0.000000 1.456275 -0.000000 -44.980996 0.000000 -0.000000 0.000002 1.471446 0.000000 -1.133458 3.217681 0.625745 0.000000 0.917756 0.000004 132.777348 -0.000001 -0.629534 0.000001 0.940221 0.000000 1.709736 -0.967728 -0.000001 0.113772 1.960660 -88.303691 90.983761 0.000123 -0.669733 -0.113771 0.388340 -0.684506 3.565975 133.800592 
0.000000 0.000000 0.000000 -0.000000 1.019410 -0.917923 -0.000000 0.000000 1.456275 -0.000000 -44.980675 -0.000000 -0.000000 0.000002 1.471445 0.000000 -1.133458 3.895608 0.625744 0.000000 0.917755 0.000004 132.308141 -0.000001 -0.629534 0.000001 0.940221 0.000000 1.709737 -1.165352 0.000000 0.113772 1.960660 -88.303718 91.194486 0.000100 -0.669733 -0.113771 0.388339 -0.680196 3.565878 133.557929 
0.000000 0.000000 0.000000 -0.000000 1.019410 -1.089270 -0.000000 0.000000 1.456275 0.000000 -44.980330 0.000000 -0.000000 0.000002 1.471446 -0.000000 -1.133458 4.636669 0.625745 0.000000 0.917755 0.000003 131.795248 -0.000001 -0.629534 0.000001 0.940221 0.000000 1.709736 -1.381380 -0.000000 0.113772 1.960661 -88.303746 91.424841 0.000089 -0.669733 -0.113771 0.388340 -0.675487 3.565746 133.292672 
0.000000 0.000000 0.000000 -0.000000 1.019410 -1.275157 -0.000000 -0.000000 1.456275 0.000000 -44.979955 0.000000 -0.000000 0.000002 1.471446 0.000000 -1.133461 5.440613 0.625745 0.000000 0.917755 0.000004 131.238847 -0.000001 -0.629534 0.000001 0.940221 0.000000 1.709737 -1.615739 -0.000001 0.113772 1.960660 -88.303780 91.674738 0.000064 -0.669733 -0.113771 0.388341 -0.670378 3.565582 133.004916 
0.000000 0.000000 0.000000 -0.000000 1.019410 -1.475526 -0.000000 0.000000 1.456275 -0.000000 -44.979545 0.000000 -0.000000 0.000002 1.471446 0.000000 -1.133462 6.307193 0.625744 0.000000 0.917755 0.000004 130.639116 -0.000000 -0.629534 0.000001 0.940221 -0.000000 1.709736 -1.868358 -0.000002 0.113772 1.960660 -88.303773 91.944100 0.000064 -0.669733 -0.113771 0.388340 -0.664873 3.565376 132.694743 
0.000000 0.000000 0.000000 -0.000000 1.019410 -1.690150 -0.000000 0.000000 1.456275 0.000000 -44.979115 0.000000 -0.000000 0.000002 1.471446 0.000000 -1.133459 7.235420 0.625745 0.000000 0.917755 0.000004 129.996682 -0.000001 -0.629534 0.000001 0.940220 0.000001 1.709737 -2.138947 -0.000001 0.113772 1.960661 -88.303786 92.232634 0.000058 -0.669733 -0.113771 0.388340 -0.658977 3.565121 132.362495 
0.000000 0.000000 0.000000 -0.000000 1.019410 -1.918118 -0.000000 0.000000 1.456275 0.000000 -44.978653 -0.000000 -0.000000 0.000002 1.471446 0.000000 -1.133458 8.221360 0.625744 0.000000 0.917755 0.000004 129.314319 -0.000001 -0.629534 0.000001 0.940221 -0.000000 1.709737 -2.426361 -0.000001 0.113772 1.960661 -88.303807 92.539098 0.000051 -0.669733 -0.113771 0.388341 -0.652716 3.564814 132.009607 
0.000000 0.000000 0.000000 -0.000000 1.019410 -2.158350 -0.000000 0.000000 1.456275 -0.000000 -44.978165 -0.000000 -0.000000 0.000002 1.471445 -0.000000 -1.133459 9.260347 0.625745 0.000000 0.917755 0.000003 128.595250 -0.000002 -0.629534 0.000001 0.940221 0.000000 1.709737 -2.729237 -0.000001 0.113772 1.960660 -88.303821 92.862050 0.000050 -0.669733 -0.113771 0.388340 -0.646120 3.564448 131.637703 
